<svg xmlns="http://www.w3.org/2000/svg" viewBox="0 0 106 164"><defs><style>.cls-1{fill:#f85528;}.cls-2{fill:#080e2c;}</style></defs><title>Asset 10</title><g id="Layer_2" data-name="Layer 2"><g id="Layer_2-2" data-name="Layer 2"><path class="cls-1" d="M45.34,0H60.66A45.34,45.34,0,0,1,106,45.34V164a0,0,0,0,1,0,0H0a0,0,0,0,1,0,0V45.34A45.34,45.34,0,0,1,45.34,0Z"/><path class="cls-2" d="M48.66,20h8.68A27.66,27.66,0,0,1,85,47.66V107a0,0,0,0,1,0,0H21a0,0,0,0,1,0,0V47.66A27.66,27.66,0,0,1,48.66,20Z"/><circle class="cls-1" cx="73" cy="77" r="5"/><rect class="cls-2" x="21" y="126" width="64" height="38"/></g></g></svg>