<svg xmlns="http://www.w3.org/2000/svg" viewBox="0 0 32 32"><title>Asset 13</title><g id="Layer_2" data-name="Layer 2"><g id="Icons_-_32px" data-name="Icons - 32px"><path d="M30,32H2a2,2,0,0,1-2-2V2A2,2,0,0,1,2,0H30a2,2,0,0,1,2,2V30A2,2,0,0,1,30,32Zm0-2v0ZM2,2V30H30V2Z"/><path d="M24.9,11h-6a1,1,0,0,1,0-2h6a1,1,0,0,1,0,2Z"/><path d="M24.9,21h-6a1,1,0,0,1,0-2h6a1,1,0,0,1,0,2Z"/><path d="M24.9,25h-6a1,1,0,0,1,0-2h6a1,1,0,0,1,0,2Z"/><path d="M13,11H7A1,1,0,0,1,7,9h6a1,1,0,0,1,0,2Z"/><path d="M10,14a1,1,0,0,1-1-1V7a1,1,0,0,1,2,0v6A1,1,0,0,1,10,14Z"/><path d="M13,26a1,1,0,0,1-.71-.29l-6-6a1,1,0,0,1,1.42-1.42l6,6a1,1,0,0,1,0,1.42A1,1,0,0,1,13,26Z"/><path d="M7,26a1,1,0,0,1-.71-.29,1,1,0,0,1,0-1.42l6-6a1,1,0,0,1,1.42,1.42l-6,6A1,1,0,0,1,7,26Z"/></g></g></svg>