<svg xmlns="http://www.w3.org/2000/svg" viewBox="0 0 31.98 31.97"><defs><style>.cls-1{fill:#f2f2f2;}</style></defs><title>Asset 4</title><g id="Layer_2" data-name="Layer 2"><g id="Layer_1-2" data-name="Layer 1"><path class="cls-1" d="M28,32H1a1,1,0,0,1-1-1V4A1,1,0,0,1,1,3H18a1,1,0,1,1,0,2H2V30H27V14a1,1,0,1,1,2,0V31A1,1,0,0,1,28,32Z"/><path class="cls-1" d="M10,23a1,1,0,0,1-.95-1.32l2-6a1.06,1.06,0,0,1,.24-.39l14-14a1,1,0,0,1,1.42,1.42L12.87,16.51l-1.29,3.88,3.88-1.29L29.29,5.26a1,1,0,1,1,1.42,1.42l-14,14a1.06,1.06,0,0,1-.39.24l-6,2A1.19,1.19,0,0,1,10,23Z"/><path class="cls-1" d="M30,7a1,1,0,0,1-.71-.29,1,1,0,0,1,0-1.42A2.12,2.12,0,0,0,30,4a1.77,1.77,0,0,0-.64-1.33A1.91,1.91,0,0,0,28,2a2.08,2.08,0,0,0-1.25.68,1,1,0,0,1-1.42-1.42A3.94,3.94,0,0,1,27.84,0a3.72,3.72,0,0,1,2.91,1.25A3.6,3.6,0,0,1,32,4.16a4,4,0,0,1-1.26,2.52A1,1,0,0,1,30,7Z"/></g></g></svg>