<svg xmlns="http://www.w3.org/2000/svg" viewBox="0 0 32 32"><defs><style>.cls-1{fill:#fff;}</style></defs><title>Asset 2</title><g id="Layer_2" data-name="Layer 2"><g id="Icons_-_32px" data-name="Icons - 32px"><path class="cls-1" d="M25.86,12.29a1,1,0,0,1,0-2,4.15,4.15,0,1,0-4.15-4.15,1,1,0,1,1-2,0,6.15,6.15,0,1,1,6.15,6.15Z"/><path class="cls-1" d="M15.57,32a3.06,3.06,0,0,1-2.16-.89L.89,18.59a3.06,3.06,0,0,1,0-4.32L3.13,12a2.44,2.44,0,0,1,2.16-.75A2.46,2.46,0,0,1,7,12.75s1.24,2.68,3.39,2.68a4.15,4.15,0,0,0,4.14-4.14c0-2.15-2.65-3.38-2.67-3.39a2.45,2.45,0,0,1-1.48-1.76A2.47,2.47,0,0,1,11.18,4l2.23-2.23a3.14,3.14,0,0,1,4.32,0l3.69,3.69A1,1,0,1,1,20,6.85L16.32,3.16a1.08,1.08,0,0,0-1.49,0L12.59,5.4c-.14.14-.22.28-.2.38s.14.21.33.29,3.85,1.77,3.85,5.22a6.15,6.15,0,0,1-6.14,6.14c-3.45,0-5.14-3.7-5.21-3.86s-.2-.3-.29-.32a.52.52,0,0,0-.39.2L2.31,15.68a1.07,1.07,0,0,0,0,1.5L14.82,29.69a1.09,1.09,0,0,0,1.5,0L28.84,17.18a1.07,1.07,0,0,0,0-1.5L25.15,12a1,1,0,1,1,1.41-1.41l3.69,3.69a3.07,3.07,0,0,1,0,4.32L17.73,31.11A3,3,0,0,1,15.57,32Z"/></g></g></svg>