<svg xmlns="http://www.w3.org/2000/svg" viewBox="0 0 54.49 54.49"><defs><style>.cls-1{fill:#f85528;}.cls-2{fill:#2d2d2d;}</style></defs><title>github-icon-rsb</title><g id="Layer_2" data-name="Layer 2"><g id="Layer_2-2" data-name="Layer 2"><circle class="cls-1" cx="27.25" cy="27.25" r="27.25"/><path class="cls-2" d="M27.12,9a18,18,0,0,0-5.85,35,1.08,1.08,0,0,0,1.44-1l.13-3s-5,1-6.12-2.2c-1-2.89-2.58-2.82-2.58-3.19,0,0-.3-.67.92-.43a4.32,4.32,0,0,1,2.7,2.09A3.23,3.23,0,0,0,20.33,38,7.31,7.31,0,0,0,23,37.47,2.94,2.94,0,0,1,24.12,35s-8.25,0-8.32-8.69v-.12s.24-3.31,2-5a5.8,5.8,0,0,1,.12-4.77,8.8,8.8,0,0,1,4.9,2.08,11,11,0,0,1,4.53-.73,10.07,10.07,0,0,1,4.41.73,8.76,8.76,0,0,1,4.89-2.08,5.83,5.83,0,0,1,.13,4.77c1.71,1.72,2,5,2,5a.49.49,0,0,1,0,.12C38.62,35,30.37,35,30.37,35a3.4,3.4,0,0,1,1.22,2.45L31.65,40l.13,3a1.08,1.08,0,0,0,1.44,1,18,18,0,0,0-6.1-35Z"/></g></g></svg>