<svg xmlns="http://www.w3.org/2000/svg" viewBox="0 0 26 32"><defs><style>.cls-1{fill:#f2f2f2;}</style></defs><title>Asset 2</title><g id="Layer_2" data-name="Layer 2"><g id="Layer_1-2" data-name="Layer 1"><path class="cls-1" d="M19,32H7a2.14,2.14,0,0,1-2.11-1.87L2,6.12a1,1,0,1,1,2-.24l2.88,24A.2.2,0,0,0,7,30H19a.2.2,0,0,0,.13-.11L22,5.88a1,1,0,1,1,2,.24l-2.88,24A2.14,2.14,0,0,1,19,32Z"/><path class="cls-1" d="M25,7H1A1,1,0,0,1,1,5H25a1,1,0,0,1,0,2Z"/><path class="cls-1" d="M17,7a1,1,0,0,1-1-1V3a1,1,0,0,0-1-1H11a1,1,0,0,0-1,1V6A1,1,0,0,1,8,6V3a3,3,0,0,1,3-3h4a3,3,0,0,1,3,3V6A1,1,0,0,1,17,7Z"/></g></g></svg>