<svg xmlns="http://www.w3.org/2000/svg" viewBox="0 0 31.96 32"><defs><style>.cls-1{fill:#fff;}</style></defs><title>Asset 1</title><g id="Layer_2" data-name="Layer 2"><g id="Icons_-_32px" data-name="Icons - 32px"><path class="cls-1" d="M30,32H13a2,2,0,0,1-2-2V22a1,1,0,0,1,2,0v8H30V2H13v8a1,1,0,0,1-2,0V2a2,2,0,0,1,2-2H30a2,2,0,0,1,2,2V30A2,2,0,0,1,30,32Z"/><path class="cls-1" d="M23,17H1a1,1,0,0,1,0-2H23a1,1,0,0,1,0,2Z"/><path class="cls-1" d="M7,23a1,1,0,0,1-.71-.29l-6-6a1,1,0,0,1,0-1.42l6-6a1,1,0,0,1,1.42,1.42L2.46,16l5.29,5.29a1,1,0,0,1,0,1.42A1,1,0,0,1,7,23Z"/></g></g></svg>