<svg xmlns="http://www.w3.org/2000/svg" viewBox="0 0 28 32"><defs><style>.cls-1{fill:#fff;}</style></defs><title>password icon-w</title><g id="Layer_2" data-name="Layer 2"><g id="Icons_-_32px" data-name="Icons - 32px"><path class="cls-1" d="M5,32a1,1,0,0,1-.71-.29l-4-4a1,1,0,0,1,1.42-1.42l4,4a1,1,0,0,1,0,1.42A1,1,0,0,1,5,32Z"/><path class="cls-1" d="M9,28a1,1,0,0,1-.71-.29l-4-4a1,1,0,0,1,1.42-1.42l4,4a1,1,0,0,1,0,1.42A1,1,0,0,1,9,28Z"/><path class="cls-1" d="M19,18a9,9,0,1,1,9-9A9,9,0,0,1,19,18ZM19,2a7,7,0,1,0,7,7A7,7,0,0,0,19,2Z"/><path class="cls-1" d="M1,28a1,1,0,0,1-.71-.29,1,1,0,0,1,0-1.42L12.16,14.43a1,1,0,0,1,1.41,1.41L1.71,27.71A1,1,0,0,1,1,28Z"/></g></g></svg>