<svg xmlns="http://www.w3.org/2000/svg" viewBox="0 0 54.49 54.49"><defs><style>.cls-1{fill:#f85528;}.cls-2{fill:#2d2d2d;}</style></defs><title>pinerest-icon-rsb</title><g id="Layer_2" data-name="Layer 2"><g id="Layer_2-2" data-name="Layer 2"><path class="cls-1" d="M27.25,54.49A27.25,27.25,0,1,1,54.49,27.25,27.27,27.27,0,0,1,27.25,54.49Z"/><path class="cls-2" d="M29.33,36c-1.95-.15-2.77-1.12-4.3-2.05-.68,3.58-1.48,7-3.38,9.39a1,1,0,0,1-1.72-.54c-.28-5.7,1.68-10.22,2.65-15-1.84-3.09.22-9.31,4.09-7.78,4.76,1.89-4.13,11.49,1.84,12.69C34.74,34,37.28,21.91,33.42,18c-5.58-5.66-16.25-.13-14.93,8,.24,1.54,1.54,2.24,1.37,3.77a1.35,1.35,0,0,1-1.94,1.08c-2.47-1.15-3.23-3.68-3.12-6.9.23-6.15,5.53-10.45,10.85-11.05,6.72-.75,13,2.47,13.9,8.8,1,7.14-3,14.87-10.22,14.32Z"/></g></g></svg>