<svg xmlns="http://www.w3.org/2000/svg" viewBox="0 0 29 32"><defs><style>.cls-1{fill:#fff;}</style></defs><title>Asset 3</title><g id="Layer_2" data-name="Layer 2"><g id="Icons_-_32px" data-name="Icons - 32px"><path class="cls-1" d="M14.5,29A14.5,14.5,0,1,1,29,14.5a15.29,15.29,0,0,1-6.44,12.33,1,1,0,1,1-1.12-1.66A13.21,13.21,0,0,0,27,14.5,12.5,12.5,0,1,0,14.5,27a12.66,12.66,0,0,0,1.39-.08,1,1,0,0,1,1.1.89,1,1,0,0,1-.88,1.1A14.08,14.08,0,0,1,14.5,29Z"/><path class="cls-1" d="M11,32a1,1,0,0,1-.85-.48,1,1,0,0,1,.33-1.37l4.15-2.56-2.48-4.07a1,1,0,1,1,1.7-1l3,4.92a1,1,0,0,1-.33,1.37l-5,3.08A1,1,0,0,1,11,32Z"/></g></g></svg>