<svg xmlns="http://www.w3.org/2000/svg" viewBox="0 0 32 32"><defs><style>.cls-1{fill:#fff;}</style></defs><title>Asset 12</title><g id="Layer_2" data-name="Layer 2"><g id="Icons_-_32px" data-name="Icons - 32px"><path class="cls-1" d="M27.05,25H14a1,1,0,0,1,0-2H26.3l3.38-12H10a1,1,0,0,1,0-2H31a1,1,0,0,1,.8.4,1,1,0,0,1,.16.87L28,24.27A1,1,0,0,1,27.05,25Z"/><circle class="cls-1" cx="24.5" cy="29.5" r="1.5"/><path class="cls-1" d="M24.5,32A2.5,2.5,0,1,1,27,29.5,2.5,2.5,0,0,1,24.5,32Zm0-3a.5.5,0,1,0,.5.5A.5.5,0,0,0,24.5,29Z"/><circle class="cls-1" cx="15.5" cy="29.5" r="1.5"/><path class="cls-1" d="M15.5,32A2.5,2.5,0,1,1,18,29.5,2.5,2.5,0,0,1,15.5,32Zm0-3a.5.5,0,1,0,.5.5A.5.5,0,0,0,15.5,29Z"/><path class="cls-1" d="M14,25a1,1,0,0,1-1-.73L7.12,3.2A1.82,1.82,0,0,0,5.54,2H1A1,1,0,0,1,1,0H5.54A3.79,3.79,0,0,1,9,2.66l5.87,21.07A1,1,0,0,1,14.22,25,.84.84,0,0,1,14,25Z"/></g></g></svg>