<svg xmlns="http://www.w3.org/2000/svg" viewBox="0 0 32 27"><defs><style>.cls-1{fill:#fff;}</style></defs><title>Asset 2</title><g id="Layer_2" data-name="Layer 2"><g id="Icons_-_32px" data-name="Icons - 32px"><path class="cls-1" d="M16,27a1,1,0,0,1-1-1V14a1,1,0,0,1,2,0V26A1,1,0,0,1,16,27Z"/><path class="cls-1" d="M20,19a1,1,0,0,1-.71-.29L16,15.41l-3.29,3.3a1,1,0,0,1-1.42-1.42l4-4a1,1,0,0,1,1.42,0l4,4a1,1,0,0,1,0,1.42A1,1,0,0,1,20,19Z"/><path class="cls-1" d="M22.15,24H21a1,1,0,0,1,0-2h1.15a15,15,0,0,0,1.75-.07A7,7,0,0,0,23,8l-.4,0a1,1,0,0,1-1.05-.66A8,8,0,0,0,6,10a6.71,6.71,0,0,0,.1,1.15,1,1,0,0,1-.68,1.11A5,5,0,0,0,7,22h4a1,1,0,0,1,0,2H7A7,7,0,0,1,4,10.67c0-.23,0-.45,0-.67A10,10,0,0,1,23.16,6a9,9,0,0,1,1,17.92A18.83,18.83,0,0,1,22.15,24Z"/></g></g></svg>